<svg xmlns="http://www.w3.org/2000/svg" viewBox="0 0 1200 900" preserveAspectRatio="xMidYMid slice" role="img" aria-hidden="true">
  <defs>
    <radialGradient id="g-studio" cx="33%" cy="58%" r="90%">
      <stop offset="0" stop-color="#ded9cf"/><stop offset="1" stop-color="#b0aca1"/>
    </radialGradient>
    <filter id="f-studio"><feTurbulence type="fractalNoise" baseFrequency="0.9" numOctaves="3"/><feColorMatrix type="saturate" values="0"/></filter>
  </defs>
  <rect width="1200" height="900" fill="url(#g-studio)"/>
  <path d="M 424.0 522.0 L 426.1 525.7 L 427.7 529.9 L 428.5 534.7 L 428.5 539.8 L 427.6 545.1 L 425.7 550.5 L 422.8 555.8 L 418.9 560.8 L 414.1 565.4 L 408.3 569.3 L 401.8 572.4 L 394.5 574.5 L 386.6 575.6 L 378.4 575.4 L 370.0 574.0 L 361.6 571.2 L 353.4 567.0 L 345.6 561.5 L 338.5 554.7 L 332.3 546.6 L 327.2 537.5 L 323.4 527.4 L 321.0 516.5 L 320.2 505.0 L 321.1 493.3 L 323.7 481.4 L 328.2 469.8 L 334.4 458.6 L 342.4 448.2 L 352.0 438.9 L 363.1 430.8 L 375.6 424.2 L 389.2 419.4 L 403.7 416.5 L 418.8 415.6 L 434.1 417.0 L 449.4 420.6 L 464.4 426.5 L 478.7 434.6 L 491.9 444.9 L 503.8 457.1 L 514.0 471.2 L 522.3 486.9 L 528.3 504.0 L 532.0 522.0 L 533.1 540.7 L 531.5 559.7 L 527.2 578.6 L 520.1 597.0 L 510.3 614.6 L 498.0 630.8 L 483.2 645.4 L 466.3 657.9 L 447.5 668.1 L 427.1 675.6 L 405.5 680.3 L 383.2 681.9 L 360.5 680.4 L 338.0 675.5 L 316.0 667.5 L 295.1 656.3 L 275.7 642.0 L 258.3 625.0 L 243.2 605.4 L 230.9 583.6 L 221.6 559.9 L 215.7 534.9 L 213.3 508.9 L 214.5 482.6 L 219.6 456.3 L 228.4 430.7 L 240.8 406.3 L 256.7 383.6 L 275.9 363.1 L 298.0 345.3 L 322.7 330.6 L 349.5 319.4 L 377.9 312.0 L 407.5 308.5 L 437.5 309.3 L 467.5 314.3 L 496.8 323.5 L 524.8 337.0 L 551.0 354.3 L 574.7 375.4 L 595.4 399.9 L 612.7 427.3 L 626.1 457.2 L 635.3 488.9 L 640.0 522.0 L 640.0 555.7 L 635.3 589.5 L 625.8 622.5 L 611.7 654.3 L 593.0 684.0 L 570.2 711.1 L 543.6 734.9 L 513.6 755.0 L 480.8 770.8 L 445.8 782.0 L 409.3 788.2 L 371.9 789.3 L 334.4 785.1 L 297.5 775.7 L 262.0 761.0 L 228.6 741.4 L 198.0 717.1 L 170.9 688.5 L 147.8 656.1 L 129.4 620.5 L 115.9 582.4 L 107.9 542.4 L 105.5 501.4 L 108.9 460.1 L 118.1 419.4 L 133.0 380.0 L 153.4 342.8 L 179.0 308.6 L 209.4 278.0 L 244.0 251.8 L 282.2 230.5 L 323.4 214.6 L 366.6 204.5 L 411.2 200.6 L 456.3 202.9 L 500.9 211.6 L 544.1 226.5 L 585.2 247.4 L 623.2 274.1 L 657.4 306.0 L 687.0 342.7 L 711.3 383.4 L 729.9 427.4 L 742.2 473.9 L 748.0 522.0 L 747.0 570.8 L 739.1 619.2 L 724.5 666.5 L 703.3 711.5 L 675.8 753.4 L 642.5 791.3 L 604.0 824.4 L 561.0 852.0 L 514.2 873.5 L 464.6 888.3 L 413.1 896.2 L 360.6 896.7 L 308.3 889.9 L 257.1 875.8 L 208.0 854.6 L 162.1 826.5 L 120.3 792.1 L 83.5 751.9 L 52.5 706.8 L 27.9 657.4 L 10.3 604.8 L 0.2 550.0 L -2.2 493.9 L 3.3 437.7 L 16.6 382.5 L 37.6 329.3 L 66.0 279.4 L 101.3 233.6 L 142.9 192.9 L 190.0 158.3 L 241.8 130.4 L 297.2 109.8 L 355.3 97.1 L 415.0 92.7 L 475.0 96.6 L 534.2 108.9 L 591.5 129.4 L 645.6 157.9 L 695.5 193.8 L 740.1 236.6 L 778.6 285.4 L 810.0 339.5 L 833.7 397.6 L 849.2 458.9 L 856.0 522.0 L 853.9 585.8 L 842.9 649.0 L 823.2 710.4 L 794.9 768.7 L 758.5 822.8 L 714.8 871.6 L 664.4 914.0 L 608.3 949.1 L 547.6 976.2 L 483.4 994.7 L 416.8 1004.1 L 349.3 1004.1 L 282.1 994.7 L 216.6 975.9 L 154.0 948.1 L 95.6 911.6 L 42.6 867.1 L -3.9 815.4 L -42.9 757.5 L -73.6 694.4 L -95.3 627.3 L -107.6 557.5 L -110.0 486.3 L -102.4 415.2 L -84.9 345.5 L -57.7 278.6 L -21.3 215.9 L 23.6 158.6 L 76.4 107.8 L 136.0 64.7 L 201.3 30.2 L 271.1 5.0 L 344.1 -10.3 L 418.8 -15.3 L 493.8 -9.8 L 567.6 6.1 L 638.8 32.3 L 706.0 68.4 L 767.8 113.6 L 822.9 167.2 L 870.2 228.2 L 908.7 295.5 L 937.5 367.9 L 956.1 443.8 L 964.0 522.0 L 960.9 600.8 L 946.8 678.8 L 921.8 754.3 L 886.4 826.0 L 841.2 892.2 L 787.0 951.8 L 724.8 1003.5 L 655.7 1046.2 L 581.0 1078.9 L 502.1 1101.1 L 420.6 1112.0 L 338.0 1111.6 L 256.0 1099.5 L 176.1 1076.1 L 100.0 1041.6 L 29.1 996.7 L -35.1 942.1 L -91.2 878.9 L -138.2 808.2 L -175.1 731.3 L -201.0 649.7 L -215.3 565.0 L -217.7 478.8 L -208.0 392.8 L -186.4 308.6 L -153.1 227.9 L -108.7 152.4 L -54.0 83.5 L 9.9 22.7 L 82.0 -28.8 L 160.9 -69.9 L 245.0 -99.8 L 332.8 -117.7 L 422.5 -123.2 L 512.5 -116.2 L 601.0 -96.6 L 686.2 -64.7 L 766.4 -21.2 L 840.0 33.3 L 905.6 97.8 L 961.7 171.0 L 1007.3 251.6 L 1041.4 338.1 L 1063.1 428.8 L 1072.0 522.0 L 1067.8 615.9 L 1050.6 708.6 L 1020.5 798.3 L 978.0 883.2 L 924.0 961.7 L 859.3 1032.1 L 785.2 1093.0 L 703.0 1143.2 L 614.3 1181.7 L 520.9 1207.4 L 424.4 1220.0 L 326.7 1219.0 L 229.9 1204.3 L 135.7 1176.2 L 46.0 1135.1 L -37.4 1081.8 L -112.7 1017.2 L -178.6 942.4 L -233.6 858.9 L -276.6 768.3 L -306.6 672.2 L -323.0 572.6 L -325.4 471.3 L -313.7 370.3 L -287.9 271.6 L -248.4 177.2 L -196.1 88.9 L -131.7 8.5 L -56.6 -62.4 L 28.0 -122.3 L 120.4 -170.1 L 218.8 -204.6 L 321.5 -225.1 L 426.3 -231.1 L 531.3 -222.5 L 634.4 -199.3 L 733.5 -161.8 L 826.8 -110.7 L 912.3 -47.0 L 988.3 28.3 L 1053.3 113.8 L 1106.0 207.7 L 1145.2 308.3 L 1170.0 413.8 L 1180.0 522.0" fill="none" stroke="#f4f1ea" stroke-width="2" stroke-opacity=".42" stroke-linecap="round"/>
  <path d="M0 646 C 240 578 384 728 626 672 S 992 556 1200 620 L1200 900 L0 900 Z" fill="#918d82" fill-opacity=".28"/>
  <path d="M0 756 C 276 708 436 818 710 772 S 1026 696 1200 742 L1200 900 L0 900 Z" fill="#918d82" fill-opacity=".5"/>
  <circle cx="400" cy="522" r="22" fill="#5f7358"/>
  <rect width="1200" height="900" filter="url(#f-studio)" opacity=".04"/>
</svg>
