<svg xmlns="http://www.w3.org/2000/svg" viewBox="0 0 1200 900" preserveAspectRatio="xMidYMid slice" role="img" aria-hidden="true">
  <defs>
    <radialGradient id="g-trail" cx="29%" cy="56%" r="88%">
      <stop offset="0" stop-color="#e9e4d3"/><stop offset="1" stop-color="#b5ae93"/>
    </radialGradient>
    <filter id="f-trail"><feTurbulence type="fractalNoise" baseFrequency="0.9" numOctaves="3"/><feColorMatrix type="saturate" values="0"/></filter>
  </defs>
  <rect width="1200" height="900" fill="url(#g-trail)"/>
  <g fill="none" stroke="#f4f1e6" stroke-linecap="round">
    <path d="M 376.0 504.0 L 378.1 507.9 L 379.5 512.5 L 380.1 517.4 L 380.0 522.7 L 378.8 528.2 L 376.8 533.7 L 373.7 539.1 L 369.6 544.1 L 364.5 548.7 L 358.6 552.6 L 351.8 555.6 L 344.4 557.7 L 336.4 558.6 L 328.0 558.4 L 319.5 556.8 L 311.0 553.9 L 302.8 549.6 L 295.0 543.9 L 288.0 537.0 L 281.8 528.8 L 276.7 519.6 L 272.9 509.4 L 270.6 498.4 L 269.9 487.0 L 270.8 475.2 L 273.6 463.4 L 278.1 451.7 L 284.4 440.6 L 292.4 430.3 L 302.0 420.9 L 313.2 412.9 L 325.7 406.4 L 339.2 401.7 L 353.7 398.8 L 368.7 398.1 L 384.0 399.5 L 399.2 403.1 L 414.1 409.0 L 428.2 417.1 L 441.3 427.4 L 453.1 439.6 L 463.2 453.6 L 471.3 469.2 L 477.3 486.1 L 480.9 504.0 L 481.9 522.5 L 480.3 541.4 L 475.9 560.1 L 468.9 578.3 L 459.2 595.6 L 446.9 611.6 L 432.3 626.0 L 415.5 638.4 L 396.9 648.4 L 376.8 655.8 L 355.5 660.4 L 333.4 661.9 L 311.0 660.4 L 288.8 655.6 L 267.1 647.6 L 246.5 636.5 L 227.4 622.4 L 210.2 605.6 L 195.4 586.2 L 183.2 564.7 L 174.1 541.4 L 168.3 516.7 L 166.0 491.1 L 167.3 465.2 L 172.3 439.3 L 181.0 414.1 L 193.2 390.1 L 208.9 367.8 L 227.8 347.6 L 249.6 330.1 L 273.9 315.7 L 300.3 304.7 L 328.3 297.4 L 357.3 294.0 L 386.9 294.8 L 416.4 299.8 L 445.2 308.9 L 472.7 322.1 L 498.4 339.2 L 521.6 360.0 L 542.0 384.0 L 558.9 411.0 L 572.1 440.3 L 581.1 471.5 L 585.7 504.0 L 585.7 537.1 L 581.1 570.3 L 571.7 602.7 L 557.8 633.8 L 539.5 663.0 L 517.1 689.6 L 490.9 712.9 L 461.5 732.6 L 429.3 748.1 L 395.0 759.1 L 359.1 765.2 L 322.4 766.2 L 285.6 762.1 L 249.5 752.8 L 214.7 738.4 L 181.9 719.1 L 151.9 695.3 L 125.4 667.2 L 102.8 635.4 L 84.7 600.6 L 71.6 563.2 L 63.7 524.0 L 61.4 483.8 L 64.7 443.4 L 73.8 403.5 L 88.4 364.9 L 108.4 328.5 L 133.5 294.9 L 163.3 265.0 L 197.2 239.3 L 234.6 218.5 L 274.9 202.9 L 317.3 193.1 L 361.0 189.3 L 405.1 191.6 L 448.8 200.0 L 491.1 214.7 L 531.3 235.2 L 568.5 261.3 L 602.0 292.6 L 630.9 328.5 L 654.7 368.3 L 672.9 411.4 L 684.9 456.9 L 690.6 504.0 L 689.6 551.7 L 681.9 599.2 L 667.5 645.4 L 646.7 689.4 L 619.8 730.4 L 587.2 767.5 L 549.6 799.9 L 507.5 826.9 L 461.7 847.8 L 413.2 862.3 L 362.8 870.0 L 311.5 870.5 L 260.3 863.8 L 210.2 850.0 L 162.2 829.2 L 117.4 801.8 L 76.5 768.1 L 40.5 728.8 L 10.2 684.7 L -13.8 636.4 L -31.0 585.0 L -40.9 531.3 L -43.2 476.5 L -37.8 421.6 L -24.8 367.6 L -4.2 315.7 L 23.6 266.8 L 58.1 222.1 L 98.7 182.4 L 144.8 148.5 L 195.4 121.3 L 249.6 101.2 L 306.4 88.8 L 364.7 84.5 L 423.3 88.3 L 481.2 100.3 L 537.1 120.4 L 590.0 148.2 L 638.7 183.4 L 682.3 225.2 L 719.8 272.9 L 750.5 325.7 L 773.7 382.5 L 788.8 442.3 L 795.4 504.0 L 793.4 566.3 L 782.7 628.1 L 763.3 688.0 L 735.6 745.0 L 700.1 797.8 L 657.4 845.4 L 608.2 886.8 L 553.4 921.1 L 494.1 947.6 L 431.4 965.6 L 366.4 974.8 L 300.5 974.8 L 234.9 965.6 L 170.9 947.2 L 109.8 920.0 L 52.8 884.4 L 1.1 840.9 L -44.3 790.5 L -82.4 733.9 L -112.4 672.3 L -133.6 606.8 L -145.5 538.6 L -147.8 469.2 L -140.4 399.8 L -123.3 331.7 L -96.8 266.4 L -61.3 205.2 L -17.3 149.3 L 34.2 99.7 L 92.3 57.7 L 156.1 24.0 L 224.2 -0.5 L 295.4 -15.5 L 368.3 -20.3 L 441.5 -15.0 L 513.6 0.6 L 583.1 26.2 L 648.6 61.3 L 708.9 105.4 L 762.6 157.8 L 808.8 217.3 L 846.3 283.0 L 874.5 353.6 L 892.6 427.7 L 900.3 504.0 L 897.2 580.9 L 883.4 657.0 L 859.1 730.7 L 824.6 800.5 L 780.5 865.2 L 727.6 923.3 L 666.8 973.7 L 599.4 1015.3 L 526.5 1047.3 L 449.6 1068.9 L 370.1 1079.6 L 289.6 1079.1 L 209.5 1067.3 L 131.6 1044.5 L 57.4 1010.8 L -11.7 967.0 L -74.3 913.8 L -129.1 852.1 L -175.0 783.1 L -210.9 708.1 L -236.1 628.6 L -250.1 546.0 L -252.4 461.9 L -243.0 378.0 L -221.8 295.9 L -189.4 217.2 L -146.1 143.6 L -92.8 76.4 L -30.4 17.1 L 39.9 -33.1 L 116.8 -73.2 L 198.8 -102.3 L 284.4 -119.7 L 372.0 -125.1 L 459.7 -118.2 L 546.0 -99.1 L 629.0 -68.1 L 707.2 -25.6 L 779.0 27.5 L 842.9 90.4 L 897.7 161.8 L 942.1 240.4 L 975.3 324.7 L 996.5 413.1 L 1005.1 504.0 L 1001.1 595.5 L 984.2 685.9 L 954.9 773.3 L 913.5 856.1 L 860.8 932.6 L 797.7 1001.3 L 725.5 1060.7 L 645.4 1109.6 L 558.9 1147.0 L 467.8 1172.1 L 373.8 1184.4 L 278.6 1183.4 L 184.2 1169.1 L 92.4 1141.7 L 5.0 1101.6 L -76.3 1049.6 L -149.8 986.6 L -214.0 913.7 L -267.5 832.4 L -309.4 744.0 L -338.7 650.4 L -354.7 553.3 L -357.0 454.6 L -345.5 356.2 L -320.4 260.0 L -281.9 168.0 L -230.9 81.9 L -168.2 3.6 L -94.9 -65.5 L -12.5 -123.9 L 77.5 -170.4 L 173.5 -204.0 L 273.5 -224.0 L 375.6 -229.9 L 477.9 -221.5 L 578.4 -198.9 L 675.0 -162.3 L 765.9 -112.5 L 849.2 -50.4 L 923.3 23.0 L 986.6 106.2 L 1037.9 197.7 L 1076.1 295.8 L 1100.3 398.6 L 1110.0 504.0" stroke-width="2.4" stroke-opacity=".55"/>
    <path d="M 324.0 504.0 L 321.9 500.1 L 320.5 495.5 L 319.9 490.6 L 320.0 485.3 L 321.2 479.8 L 323.2 474.3 L 326.3 468.9 L 330.4 463.9 L 335.5 459.3 L 341.4 455.4 L 348.2 452.4 L 355.6 450.3 L 363.6 449.4 L 372.0 449.6 L 380.5 451.2 L 389.0 454.1 L 397.2 458.4 L 405.0 464.1 L 412.0 471.0 L 418.2 479.2 L 423.3 488.4 L 427.1 498.6 L 429.4 509.6 L 430.1 521.0 L 429.2 532.8 L 426.4 544.6 L 421.9 556.3 L 415.6 567.4 L 407.6 577.7 L 398.0 587.1 L 386.8 595.1 L 374.3 601.6 L 360.8 606.3 L 346.3 609.2 L 331.3 609.9 L 316.0 608.5 L 300.8 604.9 L 285.9 599.0 L 271.8 590.9 L 258.7 580.6 L 246.9 568.4 L 236.8 554.4 L 228.7 538.8 L 222.7 521.9 L 219.1 504.0 L 218.1 485.5 L 219.7 466.6 L 224.1 447.9 L 231.1 429.7 L 240.8 412.4 L 253.1 396.4 L 267.7 382.0 L 284.5 369.6 L 303.1 359.6 L 323.2 352.2 L 344.5 347.6 L 366.6 346.1 L 389.0 347.6 L 411.2 352.4 L 432.9 360.4 L 453.5 371.5 L 472.6 385.6 L 489.8 402.4 L 504.6 421.8 L 516.8 443.3 L 525.9 466.6 L 531.7 491.3 L 534.0 516.9 L 532.7 542.8 L 527.7 568.7 L 519.0 593.9 L 506.8 617.9 L 491.1 640.2 L 472.2 660.4 L 450.4 677.9 L 426.1 692.3 L 399.7 703.3 L 371.7 710.6 L 342.7 714.0 L 313.1 713.2 L 283.6 708.2 L 254.8 699.1 L 227.3 685.9 L 201.6 668.8 L 178.4 648.0 L 158.0 624.0 L 141.1 597.0 L 127.9 567.7 L 118.9 536.5 L 114.3 504.0 L 114.3 470.9 L 118.9 437.7 L 128.3 405.3 L 142.2 374.2 L 160.5 345.0 L 182.9 318.4 L 209.1 295.1 L 238.5 275.4 L 270.7 259.9 L 305.0 248.9 L 340.9 242.8 L 377.6 241.8 L 414.4 245.9 L 450.5 255.2 L 485.3 269.6 L 518.1 288.9 L 548.1 312.7 L 574.6 340.8 L 597.2 372.6 L 615.3 407.4 L 628.4 444.8 L 636.3 484.0 L 638.6 524.2 L 635.3 564.6 L 626.2 604.5 L 611.6 643.1 L 591.6 679.5 L 566.5 713.1 L 536.7 743.0 L 502.8 768.7 L 465.4 789.5 L 425.1 805.1 L 382.7 814.9 L 339.0 818.7 L 294.9 816.4 L 251.2 808.0 L 208.9 793.3 L 168.7 772.8 L 131.5 746.7 L 98.0 715.4 L 69.1 679.5 L 45.3 639.7 L 27.1 596.6 L 15.1 551.1 L 9.4 504.0 L 10.4 456.3 L 18.1 408.8 L 32.5 362.6 L 53.3 318.6 L 80.2 277.6 L 112.8 240.5 L 150.4 208.1 L 192.5 181.1 L 238.3 160.2 L 286.8 145.7 L 337.2 138.0 L 388.5 137.5 L 439.7 144.2 L 489.8 158.0 L 537.8 178.8 L 582.6 206.2 L 623.5 239.9 L 659.5 279.2 L 689.8 323.3 L 713.8 371.6 L 731.0 423.0 L 740.9 476.7 L 743.2 531.5 L 737.8 586.4 L 724.8 640.4 L 704.2 692.3 L 676.4 741.2 L 641.9 785.9 L 601.3 825.6 L 555.2 859.5 L 504.6 886.7 L 450.4 906.8 L 393.6 919.2 L 335.3 923.5 L 276.7 919.7 L 218.8 907.7 L 162.9 887.6 L 110.0 859.8 L 61.3 824.6 L 17.7 782.8 L -19.8 735.1 L -50.5 682.3 L -73.7 625.5 L -88.8 565.7 L -95.4 504.0 L -93.4 441.7 L -82.7 379.9 L -63.3 320.0 L -35.6 263.0 L -0.1 210.2 L 42.6 162.6 L 91.8 121.2 L 146.6 86.9 L 205.9 60.4 L 268.6 42.4 L 333.6 33.2 L 399.5 33.2 L 465.1 42.4 L 529.1 60.8 L 590.2 88.0 L 647.2 123.6 L 698.9 167.1 L 744.3 217.5 L 782.4 274.1 L 812.4 335.7 L 833.6 401.2 L 845.5 469.4 L 847.8 538.8 L 840.4 608.2 L 823.3 676.3 L 796.8 741.6 L 761.3 802.8 L 717.3 858.7 L 665.8 908.3 L 607.7 950.3 L 543.9 984.0 L 475.8 1008.5 L 404.6 1023.5 L 331.7 1028.3 L 258.5 1023.0 L 186.4 1007.4 L 116.9 981.8 L 51.4 946.7 L -8.9 902.6 L -62.6 850.2 L -108.8 790.7 L -146.3 725.0 L -174.5 654.4 L -192.6 580.3 L -200.3 504.0 L -197.2 427.1 L -183.4 351.0 L -159.1 277.3 L -124.6 207.5 L -80.5 142.8 L -27.6 84.7 L 33.2 34.3 L 100.6 -7.3 L 173.5 -39.3 L 250.4 -60.9 L 329.9 -71.6 L 410.4 -71.1 L 490.5 -59.3 L 568.4 -36.5 L 642.6 -2.8 L 711.7 41.0 L 774.3 94.2 L 829.1 155.9 L 875.0 224.9 L 910.9 299.9 L 936.1 379.4 L 950.1 462.0 L 952.4 546.1 L 943.0 630.0 L 921.8 712.1 L 889.4 790.8 L 846.1 864.4 L 792.8 931.6 L 730.4 990.9 L 660.1 1041.1 L 583.2 1081.2 L 501.2 1110.3 L 415.6 1127.7 L 328.0 1133.1 L 240.3 1126.2 L 154.0 1107.1 L 71.0 1076.1 L -7.2 1033.6 L -79.0 980.5 L -142.9 917.6 L -197.7 846.2 L -242.1 767.6 L -275.3 683.3 L -296.5 594.9 L -305.1 504.0 L -301.1 412.5 L -284.2 322.1 L -254.9 234.7 L -213.5 151.9 L -160.8 75.4 L -97.7 6.7 L -25.5 -52.7 L 54.6 -101.6 L 141.1 -139.0 L 232.2 -164.1 L 326.2 -176.4 L 421.4 -175.4 L 515.8 -161.1 L 607.6 -133.7 L 695.0 -93.6 L 776.3 -41.6 L 849.8 21.4 L 914.0 94.3 L 967.5 175.6 L 1009.4 264.0 L 1038.7 357.6 L 1054.7 454.7 L 1057.0 553.4 L 1045.5 651.8 L 1020.4 748.0 L 981.9 840.0 L 930.9 926.1 L 868.2 1004.4 L 794.9 1073.5 L 712.5 1131.9 L 622.5 1178.4 L 526.5 1212.0 L 426.5 1232.0 L 324.4 1237.9 L 222.1 1229.5 L 121.6 1206.9 L 25.0 1170.3 L -65.9 1120.5 L -149.2 1058.4 L -223.3 985.0 L -286.6 901.8 L -337.9 810.3 L -376.1 712.2 L -400.3 609.4 L -410.0 504.0" stroke-width="1.6" stroke-opacity=".28"/>
  </g>
  <path d="M0 620 C 230 548 380 706 620 648 S 990 528 1200 596 L1200 900 L0 900 Z" fill="#948d73" fill-opacity=".45"/>
  <path d="M0 738 C 270 688 430 806 706 758 S 1020 678 1200 726 L1200 900 L0 900 Z" fill="#948d73" fill-opacity=".75"/>
  <circle cx="350" cy="504" r="26" fill="#c47a56" fill-opacity=".9"/>
  <rect width="1200" height="900" filter="url(#f-trail)" opacity=".045"/>
</svg>
